# Tiled2Unity generated file. Do not modify by hand.
# Wavefront file for 'TestMap_mesh_0007.obj'

# Vertices (Count = 436)
v -44 -22 0
v -45 -22 0
v -45 -21 0
v -44 -21 0
v -52 -23 0
v -53 -23 0
v -53 -22 0
v -52 -22 0
v -47 -23 0
v -48 -23 0
v -48 -22 0
v -47 -22 0
v -44 -23 0
v -45 -23 0
v -45 -22 0
v -44 -22 0
v -39 -23 0
v -40 -23 0
v -40 -22 0
v -39 -22 0
v -34 -23 0
v -35 -23 0
v -35 -22 0
v -34 -22 0
v -52 -24 0
v -53 -24 0
v -53 -23 0
v -52 -23 0
v -47 -24 0
v -48 -24 0
v -48 -23 0
v -47 -23 0
v -34 -24 0
v -35 -24 0
v -35 -23 0
v -34 -23 0
v -25 -24 0
v -26 -24 0
v -26 -23 0
v -25 -23 0
v -32 -25 0
v -33 -25 0
v -33 -24 0
v -32 -24 0
v -58 -26 0
v -59 -26 0
v -59 -25 0
v -58 -25 0
v -51 -26 0
v -52 -26 0
v -52 -25 0
v -51 -25 0
v -45 -26 0
v -46 -26 0
v -46 -25 0
v -45 -25 0
v -58 -27 0
v -59 -27 0
v -59 -26 0
v -58 -26 0
v -51 -27 0
v -52 -27 0
v -52 -26 0
v -51 -26 0
v -45 -27 0
v -46 -27 0
v -46 -26 0
v -45 -26 0
v -40 -27 0
v -41 -27 0
v -41 -26 0
v -40 -26 0
v -36 -27 0
v -37 -27 0
v -37 -26 0
v -36 -26 0
v -30 -27 0
v -31 -27 0
v -31 -26 0
v -30 -26 0
v -23 -27 0
v -24 -27 0
v -24 -26 0
v -23 -26 0
v -36 -28 0
v -37 -28 0
v -37 -27 0
v -36 -27 0
v -30 -28 0
v -31 -28 0
v -31 -27 0
v -30 -27 0
v -23 -28 0
v -24 -28 0
v -24 -27 0
v -23 -27 0
v -62 -29 0
v -63 -29 0
v -63 -28 0
v -62 -28 0
v -54 -29 0
v -55 -29 0
v -55 -28 0
v -54 -28 0
v -62 -30 0
v -63 -30 0
v -63 -29 0
v -62 -29 0
v -54 -30 0
v -55 -30 0
v -55 -29 0
v -54 -29 0
v -50 -30 0
v -51 -30 0
v -51 -29 0
v -50 -29 0
v -45 -30 0
v -46 -30 0
v -46 -29 0
v -45 -29 0
v -15 -30 0
v -16 -30 0
v -16 -29 0
v -15 -29 0
v -50 -31 0
v -51 -31 0
v -51 -30 0
v -50 -30 0
v -21 -31 0
v -22 -31 0
v -22 -30 0
v -21 -30 0
v -15 -31 0
v -16 -31 0
v -16 -30 0
v -15 -30 0
v -56 -32 0
v -57 -32 0
v -57 -31 0
v -56 -31 0
v -21 -32 0
v -22 -32 0
v -22 -31 0
v -21 -31 0
v -64 -33 0
v -65 -33 0
v -65 -32 0
v -64 -32 0
v -62 -33 0
v -63 -33 0
v -63 -32 0
v -62 -32 0
v -56 -33 0
v -57 -33 0
v -57 -32 0
v -56 -32 0
v -20 -33 0
v -21 -33 0
v -21 -32 0
v -20 -32 0
v -64 -34 0
v -65 -34 0
v -65 -33 0
v -64 -33 0
v -60 -34 0
v -61 -34 0
v -61 -33 0
v -60 -33 0
v -19 -36 0
v -20 -36 0
v -20 -35 0
v -19 -35 0
v -65 -37 0
v -66 -37 0
v -66 -36 0
v -65 -36 0
v -65 -38 0
v -66 -38 0
v -66 -37 0
v -65 -37 0
v -42 -38 0
v -43 -38 0
v -43 -37 0
v -42 -37 0
v -37 -38 0
v -38 -38 0
v -38 -37 0
v -37 -37 0
v -15 -38 0
v -16 -38 0
v -16 -37 0
v -15 -37 0
v -55 -39 0
v -56 -39 0
v -56 -38 0
v -55 -38 0
v -42 -39 0
v -43 -39 0
v -43 -38 0
v -42 -38 0
v -37 -39 0
v -38 -39 0
v -38 -38 0
v -37 -38 0
v -20 -39 0
v -21 -39 0
v -21 -38 0
v -20 -38 0
v -15 -39 0
v -16 -39 0
v -16 -38 0
v -15 -38 0
v -64 -40 0
v -65 -40 0
v -65 -39 0
v -64 -39 0
v -55 -40 0
v -56 -40 0
v -56 -39 0
v -55 -39 0
v -20 -40 0
v -21 -40 0
v -21 -39 0
v -20 -39 0
v -17 -42 0
v -18 -42 0
v -18 -41 0
v -17 -41 0
v -66 -43 0
v -67 -43 0
v -67 -42 0
v -66 -42 0
v -17 -43 0
v -18 -43 0
v -18 -42 0
v -17 -42 0
v -66 -44 0
v -67 -44 0
v -67 -43 0
v -66 -43 0
v -61 -44 0
v -62 -44 0
v -62 -43 0
v -61 -43 0
v -64 -45 0
v -65 -45 0
v -65 -44 0
v -64 -44 0
v -61 -45 0
v -62 -45 0
v -62 -44 0
v -61 -44 0
v -23 -45 0
v -24 -45 0
v -24 -44 0
v -23 -44 0
v -64 -46 0
v -65 -46 0
v -65 -45 0
v -64 -45 0
v -31 -46 0
v -32 -46 0
v -32 -45 0
v -31 -45 0
v -23 -46 0
v -24 -46 0
v -24 -45 0
v -23 -45 0
v -54 -47 0
v -55 -47 0
v -55 -46 0
v -54 -46 0
v -31 -47 0
v -32 -47 0
v -32 -46 0
v -31 -46 0
v -63 -48 0
v -64 -48 0
v -64 -47 0
v -63 -47 0
v -54 -48 0
v -55 -48 0
v -55 -47 0
v -54 -47 0
v -47 -48 0
v -48 -48 0
v -48 -47 0
v -47 -47 0
v -25 -48 0
v -26 -48 0
v -26 -47 0
v -25 -47 0
v -20 -48 0
v -21 -48 0
v -21 -47 0
v -20 -47 0
v -65 -49 0
v -66 -49 0
v -66 -48 0
v -65 -48 0
v -61 -49 0
v -62 -49 0
v -62 -48 0
v -61 -48 0
v -47 -49 0
v -48 -49 0
v -48 -48 0
v -47 -48 0
v -20 -49 0
v -21 -49 0
v -21 -48 0
v -20 -48 0
v -65 -50 0
v -66 -50 0
v -66 -49 0
v -65 -49 0
v -29 -51 0
v -30 -51 0
v -30 -50 0
v -29 -50 0
v -26 -51 0
v -27 -51 0
v -27 -50 0
v -26 -50 0
v -48 -52 0
v -49 -52 0
v -49 -51 0
v -48 -51 0
v -34 -52 0
v -35 -52 0
v -35 -51 0
v -34 -51 0
v -26 -52 0
v -27 -52 0
v -27 -51 0
v -26 -51 0
v -21 -52 0
v -22 -52 0
v -22 -51 0
v -21 -51 0
v -62 -53 0
v -63 -53 0
v -63 -52 0
v -62 -52 0
v -60 -53 0
v -61 -53 0
v -61 -52 0
v -60 -52 0
v -48 -53 0
v -49 -53 0
v -49 -52 0
v -48 -52 0
v -41 -53 0
v -42 -53 0
v -42 -52 0
v -41 -52 0
v -34 -53 0
v -35 -53 0
v -35 -52 0
v -34 -52 0
v -60 -54 0
v -61 -54 0
v -61 -53 0
v -60 -53 0
v -41 -54 0
v -42 -54 0
v -42 -53 0
v -41 -53 0
v -53 -55 0
v -54 -55 0
v -54 -54 0
v -53 -54 0
v -42 -55 0
v -43 -55 0
v -43 -54 0
v -42 -54 0
v -56 -56 0
v -57 -56 0
v -57 -55 0
v -56 -55 0
v -53 -56 0
v -54 -56 0
v -54 -55 0
v -53 -55 0
v -50 -56 0
v -51 -56 0
v -51 -55 0
v -50 -55 0
v -33 -56 0
v -34 -56 0
v -34 -55 0
v -33 -55 0
v -31 -56 0
v -32 -56 0
v -32 -55 0
v -31 -55 0
v -46 -57 0
v -47 -57 0
v -47 -56 0
v -46 -56 0
v -38 -57 0
v -39 -57 0
v -39 -56 0
v -38 -56 0
v -31 -57 0
v -32 -57 0
v -32 -56 0
v -31 -56 0
v -59 -58 0
v -60 -58 0
v -60 -57 0
v -59 -57 0
v -51 -58 0
v -52 -58 0
v -52 -57 0
v -51 -57 0
v -43 -58 0
v -44 -58 0
v -44 -57 0
v -43 -57 0
v -38 -58 0
v -39 -58 0
v -39 -57 0
v -38 -57 0
v -59 -59 0
v -60 -59 0
v -60 -58 0
v -59 -58 0
v -51 -59 0
v -52 -59 0
v -52 -58 0
v -51 -58 0
v -43 -59 0
v -44 -59 0
v -44 -58 0
v -43 -58 0

# Texture cooridinates (Count = 48)
vt 0.2283058 0.6463878
vt 0.2448347 0.6463878
vt 0.2448347 0.6768061
vt 0.2283058 0.6768061
vt 0.2634298 0.6463878
vt 0.2799587 0.6463878
vt 0.2799587 0.6768061
vt 0.2634298 0.6768061
vt 0.2634298 0.6787072
vt 0.2799587 0.6787072
vt 0.2799587 0.7091255
vt 0.2634298 0.7091255
vt 0.2283058 0.6140684
vt 0.2448347 0.6140684
vt 0.2448347 0.6444867
vt 0.2283058 0.6444867
vt 0.3161157 0.6787072
vt 0.3326446 0.6787072
vt 0.3326446 0.7091255
vt 0.3161157 0.7091255
vt 0.3161157 0.6463878
vt 0.3326446 0.6463878
vt 0.3326446 0.6768061
vt 0.3161157 0.6768061
vt 0.2634298 0.6140684
vt 0.2799587 0.6140684
vt 0.2799587 0.6444867
vt 0.2634298 0.6444867
vt 0.3161157 0.6140684
vt 0.3326446 0.6140684
vt 0.3326446 0.6444867
vt 0.3161157 0.6444867
vt 0.2283058 0.6787072
vt 0.2448347 0.6787072
vt 0.2448347 0.7091255
vt 0.2283058 0.7091255
vt 0.2809917 0.6787072
vt 0.2975207 0.6787072
vt 0.2975207 0.7091255
vt 0.2809917 0.7091255
vt 0.2809917 0.6463878
vt 0.2975207 0.6463878
vt 0.2975207 0.6768061
vt 0.2809917 0.6768061
vt 0.2809917 0.6140684
vt 0.2975207 0.6140684
vt 0.2975207 0.6444867
vt 0.2809917 0.6444867

# Normal
vn 0 0 -1

# Mesh description
g TestMap_mesh_0007

# Faces
f 1/1/1 2/2/1 3/3/1 4/4/1
f 5/5/1 6/6/1 7/7/1 8/8/1
f 9/9/1 10/10/1 11/11/1 12/12/1
f 13/13/1 14/14/1 15/15/1 16/16/1
f 17/17/1 18/18/1 19/19/1 20/20/1
f 21/21/1 22/22/1 23/23/1 24/24/1
f 25/25/1 26/26/1 27/27/1 28/28/1
f 29/9/1 30/10/1 31/11/1 32/12/1
f 33/29/1 34/30/1 35/31/1 36/32/1
f 37/33/1 38/34/1 39/35/1 40/36/1
f 41/37/1 42/38/1 43/39/1 44/40/1
f 45/1/1 46/2/1 47/3/1 48/4/1
f 49/41/1 50/42/1 51/43/1 52/44/1
f 53/1/1 54/2/1 55/3/1 56/4/1
f 57/13/1 58/14/1 59/15/1 60/16/1
f 61/45/1 62/46/1 63/47/1 64/48/1
f 65/13/1 66/14/1 67/15/1 68/16/1
f 69/9/1 70/10/1 71/11/1 72/12/1
f 73/41/1 74/42/1 75/43/1 76/44/1
f 77/5/1 78/6/1 79/7/1 80/8/1
f 81/21/1 82/22/1 83/23/1 84/24/1
f 85/45/1 86/46/1 87/47/1 88/48/1
f 89/25/1 90/26/1 91/27/1 92/28/1
f 93/29/1 94/30/1 95/31/1 96/32/1
f 97/41/1 98/42/1 99/43/1 100/44/1
f 101/5/1 102/6/1 103/7/1 104/8/1
f 105/45/1 106/46/1 107/47/1 108/48/1
f 109/25/1 110/26/1 111/27/1 112/28/1
f 113/41/1 114/42/1 115/43/1 116/44/1
f 117/33/1 118/34/1 119/35/1 120/36/1
f 121/1/1 122/2/1 123/3/1 124/4/1
f 125/45/1 126/46/1 127/47/1 128/48/1
f 129/41/1 130/42/1 131/43/1 132/44/1
f 133/13/1 134/14/1 135/15/1 136/16/1
f 137/1/1 138/2/1 139/3/1 140/4/1
f 141/45/1 142/46/1 143/47/1 144/48/1
f 145/21/1 146/22/1 147/23/1 148/24/1
f 149/33/1 150/34/1 151/35/1 152/36/1
f 153/13/1 154/14/1 155/15/1 156/16/1
f 157/37/1 158/38/1 159/39/1 160/40/1
f 161/29/1 162/30/1 163/31/1 164/32/1
f 165/37/1 166/38/1 167/39/1 168/40/1
f 169/33/1 170/34/1 171/35/1 172/36/1
f 173/41/1 174/42/1 175/43/1 176/44/1
f 177/45/1 178/46/1 179/47/1 180/48/1
f 181/41/1 182/42/1 183/43/1 184/44/1
f 185/5/1 186/6/1 187/7/1 188/8/1
f 189/21/1 190/22/1 191/23/1 192/24/1
f 193/21/1 194/22/1 195/23/1 196/24/1
f 197/45/1 198/46/1 199/47/1 200/48/1
f 201/25/1 202/26/1 203/27/1 204/28/1
f 205/41/1 206/42/1 207/43/1 208/44/1
f 209/29/1 210/30/1 211/31/1 212/32/1
f 213/17/1 214/18/1 215/19/1 216/20/1
f 217/29/1 218/30/1 219/31/1 220/32/1
f 221/45/1 222/46/1 223/47/1 224/48/1
f 225/1/1 226/2/1 227/3/1 228/4/1
f 229/1/1 230/2/1 231/3/1 232/4/1
f 233/13/1 234/14/1 235/15/1 236/16/1
f 237/13/1 238/14/1 239/15/1 240/16/1
f 241/41/1 242/42/1 243/43/1 244/44/1
f 245/5/1 246/6/1 247/7/1 248/8/1
f 249/45/1 250/46/1 251/47/1 252/48/1
f 253/21/1 254/22/1 255/23/1 256/24/1
f 257/25/1 258/26/1 259/27/1 260/28/1
f 261/1/1 262/2/1 263/3/1 264/4/1
f 265/29/1 266/30/1 267/31/1 268/32/1
f 269/41/1 270/42/1 271/43/1 272/44/1
f 273/13/1 274/14/1 275/15/1 276/16/1
f 277/37/1 278/38/1 279/39/1 280/40/1
f 281/45/1 282/46/1 283/47/1 284/48/1
f 285/5/1 286/6/1 287/7/1 288/8/1
f 289/33/1 290/34/1 291/35/1 292/36/1
f 293/41/1 294/42/1 295/43/1 296/44/1
f 297/41/1 298/42/1 299/43/1 300/44/1
f 301/9/1 302/10/1 303/11/1 304/12/1
f 305/25/1 306/26/1 307/27/1 308/28/1
f 309/45/1 310/46/1 311/47/1 312/48/1
f 313/45/1 314/46/1 315/47/1 316/48/1
f 317/9/1 318/10/1 319/11/1 320/12/1
f 321/21/1 322/22/1 323/23/1 324/24/1
f 325/1/1 326/2/1 327/3/1 328/4/1
f 329/41/1 330/42/1 331/43/1 332/44/1
f 333/29/1 334/30/1 335/31/1 336/32/1
f 337/17/1 338/18/1 339/19/1 340/20/1
f 341/9/1 342/10/1 343/11/1 344/12/1
f 345/21/1 346/22/1 347/23/1 348/24/1
f 349/13/1 350/14/1 351/15/1 352/16/1
f 353/21/1 354/22/1 355/23/1 356/24/1
f 357/45/1 358/46/1 359/47/1 360/48/1
f 361/29/1 362/30/1 363/31/1 364/32/1
f 365/29/1 366/30/1 367/31/1 368/32/1
f 369/41/1 370/42/1 371/43/1 372/44/1
f 373/17/1 374/18/1 375/19/1 376/20/1
f 377/9/1 378/10/1 379/11/1 380/12/1
f 381/45/1 382/46/1 383/47/1 384/48/1
f 385/17/1 386/18/1 387/19/1 388/20/1
f 389/37/1 390/38/1 391/39/1 392/40/1
f 393/41/1 394/42/1 395/43/1 396/44/1
f 397/33/1 398/34/1 399/35/1 400/36/1
f 401/1/1 402/2/1 403/3/1 404/4/1
f 405/45/1 406/46/1 407/47/1 408/48/1
f 409/5/1 410/6/1 411/7/1 412/8/1
f 413/21/1 414/22/1 415/23/1 416/24/1
f 417/5/1 418/6/1 419/7/1 420/8/1
f 421/13/1 422/14/1 423/15/1 424/16/1
f 425/25/1 426/26/1 427/27/1 428/28/1
f 429/29/1 430/30/1 431/31/1 432/32/1
f 433/25/1 434/26/1 435/27/1 436/28/1

